<svg width="100" height="100" viewBox="0 0 100 100" fill="none" xmlns="http://www.w3.org/2000/svg">
<rect width="100" height="100" rx="20" fill="#FBBF24"/>
<path d="M72.0001 54.5001C72.0001 52.291 70.2092 50.5001 68.0001 50.5001H58.0001V42.5001C58.0001 40.291 56.2092 38.5001 54.0001 38.5001H34.0001C32.9392 38.5001 31.9218 38.9215 31.1717 39.6717C30.4215 40.4218 30.0001 41.4392 30.0001 42.5001V62.5001C30.0001 63.561 30.4215 64.5784 31.1717 65.3285C31.9218 66.0787 32.9392 66.5001 34.0001 66.5001H38.0001C38.0001 68.7092 39.791 70.5001 42.0001 70.5001C44.2092 70.5001 46.0001 68.7092 46.0001 66.5001H58.0001C58.0001 68.7092 59.791 70.5001 62.0001 70.5001C64.2092 70.5001 66.0001 68.7092 66.0001 66.5001H68.0001C70.2092 66.5001 72.0001 64.7092 72.0001 62.5001V54.5001Z" stroke="#422006" stroke-width="5" stroke-linecap="round" stroke-linejoin="round"/>
<path d="M58 50.5H30" stroke="#422006" stroke-width="5" stroke-linecap="round" stroke-linejoin="round"/>
<path d="M42 58.5C44.2091 58.5 46 56.7091 46 54.5C46 52.2909 44.2091 50.5 42 50.5C39.7909 50.5 38 52.2909 38 54.5C38 56.7091 39.7909 58.5 42 58.5Z" fill="#422006"/>
<path d="M62 58.5C64.2091 58.5 66 56.7091 66 54.5C66 52.2909 64.2091 50.5 62 50.5C59.7909 50.5 58 52.2909 58 54.5C58 56.7091 59.7909 58.5 62 58.5Z" fill="#422006"/>
</svg>
